<?xml version="1.0" standalone="no"?>
<!DOCTYPE svg PUBLIC "-//W3C//DTD SVG 20010904//EN"
 "http://www.w3.org/TR/2001/REC-SVG-20010904/DTD/svg10.dtd">
<svg version="1.0" xmlns="http://www.w3.org/2000/svg"
 width="500.000000pt" height="500.000000pt" viewBox="0 0 500.000000 500.000000"
 preserveAspectRatio="xMidYMid meet">
<metadata>
Created by potrace 1.11, written by Peter Selinger 2001-2013
</metadata>
<g transform="translate(0.000000,500.000000) scale(0.100000,-0.100000)"
fill="#000000" stroke="none">
<path d="M2310 4390 c-588 -72 -1079 -373 -1397 -857 -189 -288 -303 -674
-303 -1025 0 -717 410 -1381 1050 -1703 80 -40 227 -103 255 -109 6 -2 42 -12
81 -24 40 -12 94 -27 120 -33 27 -5 69 -15 94 -20 206 -46 579 -33 790 28 173
49 166 47 270 96 30 14 78 35 105 48 28 12 52 24 55 28 3 3 21 14 40 24 83 43
158 99 152 115 -2 8 2 10 14 5 10 -4 15 -2 11 4 -3 5 9 16 28 23 23 9 31 18
27 28 -3 10 -1 13 6 8 14 -8 45 18 34 29 -4 4 -1 5 7 3 8 -2 20 7 26 20 7 13
15 23 19 23 20 -2 27 0 22 7 -3 5 4 15 16 23 11 8 24 24 29 37 5 12 19 27 31
32 13 5 20 9 16 9 -4 1 3 11 15 24 12 13 31 36 42 52 11 16 27 36 35 45 35 37
139 203 191 305 229 453 271 983 113 1462 -134 410 -429 787 -794 1014 -292
182 -607 275 -959 284 -91 2 -200 0 -241 -5z m420 -25 c156 -25 417 -108 555
-175 120 -60 146 -74 210 -122 59 -44 314 -298 299 -298 -6 0 -23 14 -40 31
-35 37 -165 140 -250 197 -279 187 -678 312 -999 312 -511 0 -1086 -275 -1395
-667 -23 -29 -44 -53 -47 -53 -2 0 17 28 44 62 64 84 195 213 290 288 43 34
85 67 94 74 8 7 41 28 72 47 31 18 57 37 57 41 0 5 6 8 13 8 7 0 28 10 47 23
19 12 80 42 135 66 55 24 123 54 150 67 28 12 65 26 83 29 18 4 30 10 28 14
-3 4 3 7 12 8 9 1 38 9 65 18 26 9 51 13 56 10 5 -3 11 -1 13 5 9 28 358 39
508 15z m-253 -210 c3 -9 -51 -168 -121 -354 -69 -187 -178 -482 -241 -657
-63 -174 -120 -323 -126 -330 -6 -8 -17 -14 -25 -14 -13 0 -108 141 -299 442
-57 89 -111 163 -126 172 -22 13 -60 16 -193 16 -217 0 -218 2 -92 158 188
232 548 447 891 532 191 48 321 61 332 35z m305 -15 c304 -62 638 -230 861
-431 64 -58 207 -230 207 -250 0 -5 -66 -9 -147 -10 -87 0 -162 -5 -182 -12
-27 -9 -48 -31 -90 -92 -184 -269 -364 -525 -377 -536 -10 -8 -18 -9 -25 -2
-12 12 -61 153 -278 806 -140 420 -171 520 -161 532 17 20 73 19 192 -5z
m1067 -421 c46 -54 35 -56 -13 -2 -21 24 -35 43 -30 42 5 0 24 -18 43 -40z
m62 -76 c13 -16 12 -17 -3 -4 -10 7 -18 15 -18 17 0 8 8 3 21 -13z m34 -43
c10 -11 16 -20 13 -20 -3 0 -13 9 -23 20 -10 11 -16 20 -13 20 3 0 13 -9 23
-20z m-2911 -60 c-15 -22 -29 -40 -31 -40 -5 0 3 15 29 53 30 43 31 32 2 -13z
m2966 -20 c6 -11 8 -20 6 -20 -3 0 -10 9 -16 20 -6 11 -8 20 -6 20 3 0 10 -9
16 -20z m-3020 -60 c-6 -11 -13 -20 -16 -20 -2 0 0 9 6 20 6 11 13 20 16 20 2
0 0 -9 -6 -20z m-40 -68 c0 -5 -7 -17 -15 -28 -14 -18 -14 -17 -4 9 12 27 19
34 19 19z m236 -66 l28 -23 -14 -304 c-7 -167 -16 -530 -19 -806 -6 -490 -6
-502 -27 -530 -12 -15 -27 -28 -35 -28 -36 0 -184 356 -229 548 -19 84 -40
249 -40 321 0 191 73 484 175 702 68 144 103 170 161 120z m1403 -109 c22 -67
74 -230 116 -362 42 -132 85 -266 97 -298 34 -95 27 -113 -134 -339 -160 -224
-164 -226 -221 -155 -63 78 -219 309 -229 339 -19 54 -3 129 70 323 38 105
103 280 143 390 69 192 92 240 110 230 4 -3 25 -60 48 -128z m1354 105 c54
-60 166 -356 209 -552 32 -148 32 -389 -1 -539 -33 -154 -96 -336 -166 -473
-70 -140 -95 -164 -142 -138 -52 29 -53 34 -42 435 32 1195 34 1230 52 1258
21 32 65 36 90 9z m-2372 -454 c29 -46 102 -157 162 -247 l109 -165 -4 -60
c-3 -46 -34 -143 -129 -405 -69 -190 -132 -349 -141 -354 -25 -16 -68 1 -79
31 -8 19 -8 153 0 457 6 237 11 519 11 628 0 108 4 197 8 197 5 0 33 -37 63
-82z m1954 -435 c-4 -274 -10 -562 -14 -641 -7 -126 -10 -146 -29 -164 -20
-20 -22 -20 -46 -5 -21 14 -43 73 -146 384 -66 203 -120 380 -120 395 0 18 32
74 95 165 52 76 129 189 171 251 43 61 82 112 87 112 6 0 7 -183 2 -497z
m-562 -355 c2 -7 57 -171 121 -363 121 -366 131 -413 97 -456 -37 -48 -42 -66
-25 -83 13 -13 43 -16 167 -16 l152 0 -25 -20 c-14 -10 -82 -52 -152 -92 -76
-43 -123 -75 -116 -79 8 -5 2 -10 -15 -14 -18 -5 -29 -16 -34 -34 -8 -31 -26
-51 -46 -51 -9 0 -17 -5 -19 -11 -2 -5 -11 -11 -20 -13 -21 -3 -36 -16 -20
-16 7 0 12 -4 12 -9 0 -5 -9 -7 -19 -4 -13 3 -21 -2 -26 -16 -3 -12 -11 -19
-16 -15 -5 3 -6 11 -3 17 4 7 -4 2 -18 -11 -14 -13 -29 -22 -34 -21 -27 5 -64
-2 -59 -11 3 -5 0 -11 -7 -11 -45 -5 -58 -7 -72 -12 -8 -3 -18 -1 -22 5 -4 7
-9 6 -14 -2 -5 -8 -38 -13 -94 -15 -47 -1 -89 -5 -93 -8 -3 -4 -15 -7 -26 -7
-16 0 -17 3 -7 15 11 13 8 15 -15 15 -23 0 -26 -2 -15 -15 11 -13 8 -15 -13
-15 -19 0 -25 4 -21 15 4 8 1 15 -5 15 -6 0 -11 -4 -11 -10 0 -16 -52 -11 -72
7 -17 15 -18 15 -18 0 0 -10 -4 -17 -10 -17 -5 0 -7 7 -4 15 4 8 1 15 -6 15
-6 0 -8 5 -5 10 3 6 2 10 -4 10 -5 0 -11 -5 -13 -12 -3 -7 -12 -9 -23 -4 -17
6 -17 9 -5 17 12 9 12 10 -3 5 -11 -3 -27 2 -40 15 -12 11 -34 23 -49 26 -35
7 -50 24 -38 43 9 13 10 13 11 0 1 -8 1 -18 0 -22 0 -4 6 -5 13 -2 22 8 8 31
-24 42 -26 10 -28 9 -25 -14 1 -13 -2 -24 -6 -24 -5 0 -9 5 -9 11 0 8 -4 8
-13 1 -10 -8 -13 -6 -13 9 0 12 5 18 13 15 7 -3 13 -1 13 3 0 11 -29 23 -40
16 -5 -3 -7 -14 -5 -25 2 -11 0 -22 -6 -25 -5 -4 -9 9 -9 29 0 31 -4 36 -37
46 -92 30 -217 87 -330 151 -68 39 -125 74 -128 80 -4 5 47 9 127 9 98 0 139
4 153 14 18 13 18 14 -3 47 -60 95 -61 73 16 289 173 486 196 546 207 558 6 7
19 10 27 7 9 -4 93 -122 188 -264 109 -165 180 -263 196 -270 35 -15 73 6 109
61 52 80 308 443 328 466 23 25 42 29 50 10z m-1444 -557 c28 -18 -57 -223
-99 -236 -29 -9 -72 27 -161 138 -44 54 -79 100 -79 102 0 9 325 5 339 -4z
m2304 0 c16 -6 12 -15 -32 -73 -28 -37 -74 -90 -101 -117 -42 -42 -57 -51 -86
-51 -51 0 -87 42 -108 124 -21 87 -20 105 7 116 26 10 294 12 320 1z m75 -193
c-13 -18 -35 -48 -50 -66 -16 -18 -28 -39 -28 -47 0 -7 -6 -20 -13 -27 -6 -7
-24 -28 -39 -45 -118 -144 -472 -355 -753 -450 -265 -89 -556 -98 -861 -27
-128 29 -322 100 -414 152 -103 57 -127 74 -204 143 -28 25 -78 66 -111 91
-33 26 -82 67 -110 93 l-50 47 60 -47 c140 -107 227 -163 371 -236 292 -148
599 -220 883 -206 475 24 931 234 1265 584 38 40 71 73 73 73 2 0 -7 -15 -19
-32z m-1881 -424 c-3 -3 -12 -4 -19 -1 -8 3 -5 6 6 6 11 1 17 -2 13 -5z m173
-98 c0 -3 -4 -8 -10 -11 -5 -3 -10 -1 -10 4 0 6 5 11 10 11 6 0 10 -2 10 -4z
m30 -26 c0 -5 -5 -10 -11 -10 -5 0 -7 5 -4 10 3 6 8 10 11 10 2 0 4 -4 4 -10z"/>
<path d="M2383 749 c-1 -10 5 -19 13 -19 17 0 18 14 1 28 -10 8 -13 6 -14 -9z"/>
</g>
</svg>
